<svg width="88" height="40" viewBox="0 0 88 40" fill="none" xmlns="http://www.w3.org/2000/svg">
<path d="M13.4809 0.511193H17.3869V39.0752H12.7369L4.73885 9.19119V39.0752H0.832852V0.511193H5.79285L13.4809 29.3412V0.511193ZM32.0779 30.3332V6.09119C32.0779 5.26453 31.9539 4.74786 31.7059 4.54119C31.4993 4.29319 30.9826 4.16919 30.1559 4.16919H28.0479V0.511193H31.3959C33.0493 0.511193 34.2686 0.924526 35.0539 1.75119C35.8806 2.53653 36.2939 3.75586 36.2939 5.40919V30.3332H32.0779ZM32.0779 33.4952V27.2332H36.2939V34.1772C36.2939 35.8305 35.8806 37.0705 35.0539 37.8972C34.2686 38.6825 33.0493 39.0752 31.3959 39.0752H27.6139V35.4172H30.1559C30.9826 35.4172 31.4993 35.2932 31.7059 35.0452C31.9539 34.7972 32.0779 34.2805 32.0779 33.4952ZM24.3899 6.09119V30.3952H20.1739V5.40919C20.1739 3.75586 20.5666 2.53653 21.3519 1.75119C22.1786 0.924526 23.4186 0.511193 25.0719 0.511193H28.4199V4.16919H26.3119C25.5266 4.16919 25.0099 4.29319 24.7619 4.54119C24.5139 4.74786 24.3899 5.26453 24.3899 6.09119ZM24.3899 26.7372V33.4952C24.3899 34.2805 24.5139 34.7972 24.7619 35.0452C25.0099 35.2932 25.5266 35.4172 26.3119 35.4172H28.2339V39.0752H25.0719C23.4186 39.0752 22.1786 38.6825 21.3519 37.8972C20.5666 37.0705 20.1739 35.8305 20.1739 34.1772V26.7372H24.3899ZM51.0097 17.3752V6.09119C51.0097 5.26453 50.8857 4.74786 50.6377 4.54119C50.4311 4.29319 49.9144 4.16919 49.0877 4.16919H39.1057V0.511193H50.3277C51.9811 0.511193 53.2004 0.924526 53.9857 1.75119C54.8124 2.53653 55.2257 3.75586 55.2257 5.40919V18.0572C55.2257 19.7105 54.8124 20.9505 53.9857 21.7772C53.2004 22.5625 51.9811 22.9552 50.3277 22.9552H41.6477V19.2972H49.0877C49.9144 19.2972 50.4311 19.1732 50.6377 18.9252C50.8857 18.6772 51.0097 18.1605 51.0097 17.3752ZM39.1057 0.511193H43.3217V39.0752H39.1057V0.511193ZM46.4217 21.3432H50.8237L57.2097 39.0752H52.6217L46.4217 21.3432ZM61.0697 0.511193H65.2857V39.0752H61.0697V0.511193ZM71.4857 0.511193V4.16919H54.8697V0.511193H71.4857ZM83.0996 30.3332V6.09119C83.0996 5.26453 82.9756 4.74786 82.7276 4.54119C82.5209 4.29319 82.0043 4.16919 81.1776 4.16919H79.0696V0.511193H82.4176C84.0709 0.511193 85.2903 0.924526 86.0756 1.75119C86.9023 2.53653 87.3156 3.75586 87.3156 5.40919V30.3332H83.0996ZM83.0996 33.4952V27.2332H87.3156V34.1772C87.3156 35.8305 86.9023 37.0705 86.0756 37.8972C85.2903 38.6825 84.0709 39.0752 82.4176 39.0752H78.6356V35.4172H81.1776C82.0043 35.4172 82.5209 35.2932 82.7276 35.0452C82.9756 34.7972 83.0996 34.2805 83.0996 33.4952ZM75.4116 6.09119V30.3952H71.1956V5.40919C71.1956 3.75586 71.5883 2.53653 72.3736 1.75119C73.2003 0.924526 74.4403 0.511193 76.0936 0.511193H79.4416V4.16919H77.3336C76.5483 4.16919 76.0316 4.29319 75.7836 4.54119C75.5356 4.74786 75.4116 5.26453 75.4116 6.09119ZM75.4116 26.7372V33.4952C75.4116 34.2805 75.5356 34.7972 75.7836 35.0452C76.0316 35.2932 76.5483 35.4172 77.3336 35.4172H79.2556V39.0752H76.0936C74.4403 39.0752 73.2003 38.6825 72.3736 37.8972C71.5883 37.0705 71.1956 35.8305 71.1956 34.1772V26.7372H75.4116Z" fill="#030211"/>
</svg>
