<svg width="235" height="30" viewBox="0 0 235 30" fill="none" xmlns="http://www.w3.org/2000/svg">
<path d="M0.771878 29.0752V1.07519H10.7719C12.1585 1.07519 13.3585 1.28853 14.3719 1.71519C15.4119 2.11519 16.2519 2.63519 16.8919 3.27519C17.5585 3.91519 18.0519 4.62186 18.3719 5.3952C18.6919 6.16853 18.8519 6.92853 18.8519 7.67519C18.8519 8.52853 18.6652 9.34186 18.2919 10.1152C17.9185 10.8619 17.4119 11.5285 16.7719 12.1152C16.1585 12.6752 15.4385 13.1419 14.6119 13.5152C13.7852 13.8619 12.9052 14.0352 11.9719 14.0352V14.1952C12.5585 14.2219 13.3319 14.3152 14.2919 14.4752C15.2519 14.6352 16.1852 14.9552 17.0919 15.4352C17.9985 15.9152 18.7719 16.6085 19.4119 17.5152C20.0785 18.4219 20.4119 19.6352 20.4119 21.1552C20.4119 22.1152 20.2385 23.0752 19.8919 24.0352C19.5719 24.9685 19.0385 25.8085 18.2919 26.5552C17.5452 27.3019 16.5585 27.9152 15.3319 28.3952C14.1052 28.8485 12.5985 29.0752 10.8119 29.0752H0.771878ZM4.41188 27.3152H10.2119C11.0652 27.3152 11.8652 27.1952 12.6119 26.9552C13.3852 26.6885 14.0519 26.3019 14.6119 25.7952C15.1719 25.2885 15.6119 24.6752 15.9319 23.9552C16.2785 23.2352 16.4519 22.4085 16.4519 21.4752C16.4519 20.6219 16.2919 19.8085 15.9719 19.0352C15.6785 18.2619 15.2119 17.5819 14.5719 16.9952C13.9585 16.4085 13.1719 15.9419 12.2119 15.5952C11.2519 15.2485 10.1185 15.0752 8.81188 15.0752H4.41188V27.3152ZM4.41188 13.3152H9.21188C10.0119 13.3152 10.7585 13.1819 11.4519 12.9152C12.1719 12.6485 12.7985 12.2752 13.3319 11.7952C13.8919 11.3152 14.3185 10.7419 14.6119 10.0752C14.9319 9.40853 15.0919 8.68853 15.0919 7.91519C15.0919 7.30186 14.9852 6.68853 14.7719 6.07519C14.5585 5.46186 14.2119 4.91519 13.7319 4.43519C13.2785 3.95519 12.6785 3.56853 11.9319 3.27519C11.2119 2.98186 10.3319 2.83519 9.29188 2.83519H4.41188V13.3152ZM49.8172 1.07519H58.8972C60.6839 1.07519 62.1639 1.32853 63.3372 1.83519C64.5105 2.31519 65.4305 2.92853 66.0972 3.67519C66.7905 4.39519 67.2705 5.18186 67.5372 6.03519C67.8305 6.88853 67.9772 7.67519 67.9772 8.39519C67.9772 9.19519 67.8439 10.0219 67.5772 10.8752C67.3105 11.7019 66.8839 12.4752 66.2972 13.1952C65.7105 13.9152 64.9505 14.5152 64.0172 14.9952C63.1105 15.4752 62.0172 15.7552 60.7372 15.8352V15.9952L61.1372 16.1952C61.4572 16.3552 61.7239 16.5552 61.9372 16.7952C62.1772 17.0352 62.4705 17.4219 62.8172 17.9552C63.1905 18.4885 63.6839 19.2485 64.2972 20.2352C64.9105 21.1952 65.7772 22.4885 66.8972 24.1152C67.2705 24.6752 67.6305 25.1819 67.9772 25.6352C68.3239 26.0619 68.6839 26.4352 69.0572 26.7552C69.4305 27.0485 69.8305 27.2752 70.2572 27.4352C70.6839 27.5952 71.1772 27.6752 71.7372 27.6752C71.8705 27.6752 72.0039 27.6752 72.1372 27.6752C72.2705 27.6485 72.4039 27.6219 72.5372 27.5952V29.0752C72.1639 29.2885 71.7905 29.4219 71.4172 29.4752C71.0439 29.5285 70.5639 29.5552 69.9772 29.5552C69.1772 29.5552 68.4839 29.4485 67.8972 29.2352C67.3372 29.0219 66.8305 28.7419 66.3772 28.3952C65.9239 28.0219 65.4972 27.5819 65.0972 27.0752C64.7239 26.5685 64.3372 26.0085 63.9372 25.3952L60.7772 20.7152C60.2972 19.9685 59.8839 19.3419 59.5372 18.8352C59.1905 18.3285 58.8172 17.9152 58.4172 17.5952C58.0172 17.2752 57.5639 17.0485 57.0572 16.9152C56.5772 16.7819 55.9639 16.7152 55.2172 16.7152H53.4572V29.0752H49.8172V1.07519ZM53.4572 2.83519V14.9152H57.5772C58.6439 14.9152 59.5772 14.7285 60.3772 14.3552C61.2039 13.9819 61.8972 13.5019 62.4572 12.9152C63.0172 12.3019 63.4305 11.6352 63.6972 10.9152C63.9905 10.1685 64.1372 9.43519 64.1372 8.7152C64.1372 7.86186 63.9772 7.07519 63.6572 6.35519C63.3639 5.63519 62.9239 5.02186 62.3372 4.51519C61.7505 3.98186 61.0439 3.56853 60.2172 3.27519C59.4172 2.98186 58.5105 2.83519 57.4972 2.83519H53.4572ZM116.688 20.8352H102.888L99.3681 29.0752H97.5281L109.368 1.07519H111.368L124.408 29.0752H120.528L116.688 20.8352ZM115.848 19.0352L109.568 5.5552H109.408L103.648 19.0352H115.848ZM175.585 1.07519H177.425V29.5552H177.225L155.025 7.67519H154.865V29.0752H153.025V0.595195H153.225L175.425 22.4752H175.585V1.07519ZM210.009 29.0752V1.07519H219.209C221.423 1.07519 223.449 1.43519 225.289 2.15519C227.129 2.84853 228.703 3.82186 230.009 5.07519C231.343 6.30186 232.369 7.76853 233.089 9.47519C233.836 11.1819 234.209 13.0219 234.209 14.9952C234.209 17.0485 233.823 18.9419 233.049 20.6752C232.303 22.3819 231.263 23.8619 229.929 25.1152C228.623 26.3685 227.089 27.3419 225.329 28.0352C223.569 28.7285 221.689 29.0752 219.689 29.0752H210.009ZM213.649 27.3152H218.049C220.236 27.3152 222.089 26.9552 223.609 26.2352C225.156 25.4885 226.423 24.5285 227.409 23.3552C228.396 22.1819 229.116 20.8752 229.569 19.4352C230.023 17.9685 230.249 16.5152 230.249 15.0752C230.249 13.4752 229.983 11.9419 229.449 10.4752C228.916 8.98186 228.129 7.67519 227.089 6.55519C226.076 5.40853 224.809 4.50186 223.289 3.83519C221.769 3.16853 220.023 2.83519 218.049 2.83519H213.649V27.3152Z" fill="#030211"/>
</svg>
